<svg width="117" height="15" viewBox="0 0 117 15" fill="none" xmlns="http://www.w3.org/2000/svg">
<g clip-path="url(#clip0_8319_52296)">
<path d="M109.088 13.6016C108.693 13.2115 108.386 12.7417 108.186 12.2233C107.981 11.7225 107.872 11.188 107.862 10.647H110.592C110.602 11.1453 110.808 11.6195 111.164 11.9666C111.538 12.3 112.027 12.4736 112.526 12.4504C112.772 12.4596 113.018 12.4188 113.248 12.3304C113.478 12.242 113.689 12.1079 113.866 11.9361C114.039 11.7667 114.175 11.5631 114.265 11.3381C114.356 11.1132 114.399 10.8719 114.391 10.6294C114.402 10.3504 114.35 10.0724 114.239 9.81654C114.127 9.56066 113.959 9.3335 113.748 9.15214C113.206 8.7451 112.593 8.44348 111.941 8.26286C111.637 8.16043 111.449 8.1 111.377 8.07986C110.971 7.93417 110.58 7.75035 110.209 7.53086C109.651 7.17627 109.193 6.68389 108.878 6.10071C108.554 5.51706 108.384 4.8592 108.386 4.19057C108.382 3.48236 108.574 2.78702 108.941 2.18186C109.305 1.56923 109.824 1.06464 110.446 0.719571C111.072 0.363368 111.78 0.177669 112.5 0.180857C113.224 0.170832 113.939 0.346979 114.576 0.692571C115.189 1.02706 115.699 1.52334 116.052 2.12786C116.421 2.76069 116.63 3.47541 116.658 4.20857H113.971C113.952 3.7989 113.778 3.41215 113.483 3.12857C113.182 2.85824 112.789 2.71567 112.385 2.73086C112.198 2.72385 112.012 2.75704 111.839 2.82822C111.666 2.89939 111.51 3.00691 111.381 3.14357C111.119 3.43426 110.981 3.81698 110.997 4.209C110.989 4.39718 111.02 4.58499 111.087 4.76085C111.154 4.93671 111.257 5.09691 111.388 5.23157C111.792 5.57227 112.263 5.82449 112.77 5.97214L113.374 6.17486C114.144 6.41708 114.869 6.78625 115.519 7.26729C115.995 7.6446 116.377 8.12817 116.634 8.67964C116.892 9.23111 117.018 9.8353 117.003 10.4443C117.01 11.2459 116.804 12.035 116.406 12.7297C116.007 13.4244 115.431 13.9995 114.738 14.3953C114.039 14.7978 113.246 15.0065 112.441 15C111.816 15.0137 111.195 14.8965 110.618 14.6557C110.04 14.4149 109.519 14.0559 109.088 13.6016V13.6016ZM39.5858 14.0096C38.471 13.364 37.5455 12.4343 36.9028 11.3143C36.2476 10.1922 35.9061 8.9132 35.9146 7.61228C35.9082 6.31286 36.2468 5.03524 36.8956 3.91114C37.5287 2.7896 38.4397 1.85165 39.5401 1.18843C40.6251 0.523769 41.8724 0.174948 43.1431 0.180857C44.4673 0.167886 45.7712 0.508021 46.9218 1.16657C48.0487 1.8047 48.9838 2.73585 49.6291 3.86229C50.2874 5.00053 50.6286 6.29585 50.6169 7.61228C50.6258 8.91346 50.2853 10.193 49.6312 11.316C48.9886 12.4362 48.0622 13.3655 46.9461 14.0091C45.8271 14.6581 44.5578 14.9998 43.2657 14.9998C41.9737 14.9998 40.7044 14.6581 39.5853 14.0091L39.5858 14.0096ZM40.9285 3.36557C40.202 3.77802 39.5995 4.37953 39.1844 5.10686C38.758 5.84911 38.5378 6.69276 38.5467 7.54971C38.5421 8.40681 38.7639 9.24979 39.1895 9.99257C39.6036 10.7307 40.201 11.3485 40.9234 11.7857C41.6308 12.2207 42.444 12.4507 43.2733 12.4502C44.1027 12.4498 44.9157 12.2189 45.6226 11.7831C46.3459 11.3426 46.9445 10.7228 47.3611 9.98314C47.7882 9.244 48.0117 8.40394 48.0086 7.54929C48.0125 6.71058 47.7941 5.88595 47.3761 5.16C46.9671 4.43354 46.3797 3.82446 45.6699 3.39086C44.9797 2.95862 44.1825 2.73007 43.3692 2.73129C42.5141 2.72207 41.6719 2.94094 40.9285 3.36557V3.36557ZM77.5801 14.6863V0.447429H85.5773V3.13071H80.2575V6.23614H85.1269V8.91943H80.2575V12.03H85.5773V14.6871L77.5801 14.6863ZM68.7346 14.6863V4.01057L65.2144 14.6863H63.0023L59.4262 4.01057V14.6863H56.7817V0.447429H60.31L64.1062 10.9727L64.2683 11.823L64.4299 10.9727L67.9276 0.447429H71.3825V14.6863H68.7346ZM21.7599 14.6863V6.67543H25.4447C26.2458 6.67543 26.8975 5.628 26.8975 4.66371C26.8975 3.69943 26.2458 2.67686 25.4447 2.67686H21.7603V0H25.4452C27.7992 0 29.7144 2.13386 29.7144 4.66329C29.7144 7.19271 27.7988 9.249 25.4452 9.249H24.4215V14.6863H21.7599ZM91.3373 14.6537V0.447429H94.4903C95.6699 0.421587 96.8476 0.555505 97.9917 0.845571C98.8754 1.08148 99.6962 1.51088 100.395 2.103C100.9 2.52898 101.332 3.03458 101.675 3.6C102.044 4.19767 102.331 4.84358 102.525 5.51957C102.722 6.19125 102.822 6.88768 102.824 7.58786C102.822 8.62868 102.599 9.65714 102.169 10.6041C101.769 11.5322 101.163 12.3562 100.398 13.0131C99.9527 13.4096 99.4506 13.7361 98.9083 13.9817C98.3226 14.2348 97.7058 14.4078 97.0742 14.496C96.2404 14.6105 95.3992 14.6632 94.5577 14.6537H91.3373ZM93.9874 12.1037H94.4672C95.2897 12.1249 96.112 12.053 96.9185 11.8894C97.5322 11.7409 98.1054 11.4576 98.5971 11.0599C99.0887 10.6622 99.4865 10.1599 99.7618 9.58929C100.061 8.97385 100.215 8.29758 100.213 7.61271C100.217 6.85986 100.044 6.11666 99.7081 5.44371C99.3993 4.80121 98.9288 4.25091 98.3432 3.84729C97.8646 3.52257 97.3261 3.29757 96.7594 3.18557C95.9208 3.04396 95.0709 2.98112 94.2207 2.99786H93.9857L93.9874 12.1037ZM10.962 14.6537L9.43759 11.1266H4.436L2.86719 14.6537H0L5.8632 0.447429H7.90803L13.8369 14.6537H10.962ZM6.78538 4.27243L5.11846 8.89328H8.55551L6.90779 4.27243L6.84381 3.74357L6.78538 4.27243Z" fill="#0075FF"/>
<path d="M21.7863 2.67676H17.2351C16.3117 2.67676 15.5605 3.57676 15.5605 4.68547C15.5605 5.79419 16.3117 6.69462 17.2351 6.69462H21.7863V2.67676Z" fill="#E31B00"/>
</g>
<defs>
<clipPath id="clip0_8319_52296">
<rect width="117" height="15" fill="white"/>
</clipPath>
</defs>
</svg>
